<svg width="94" height="561" viewBox="0 0 94 561" fill="none" xmlns="http://www.w3.org/2000/svg">
<path d="M53.1633 21.7536C46.5942 16.176 41.2874 10.559 37.1519 2.9082C32.7902 5.08903 19.2984 14.2018 19.2984 20.7617C19.2984 26.5487 18.0231 32.7606 18.0231 38.8986C18.0231 50.0285 15.897 58.5126 13.914 69.2212C10.9248 85.3629 4.25222 99.7037 3.00349 116.405C0.699947 147.215 6.31224 177.839 8.10449 208.507C9.31716 229.257 8.83673 249.941 9.09635 270.711C9.39237 294.392 12.8007 317.484 14.835 340.991C16.6792 362.302 17.9916 383.633 20.2902 404.895C22.7497 427.646 21.8489 450.698 21.8489 473.546C21.8489 488.827 20.1907 504.813 25.6746 519.384C29.2803 528.965 30.8171 538.765 33.8929 548.432C34.4919 550.314 35.7757 553.174 35.8766 555.091C35.8766 559 53.5 558.5 55 558.5C57.7323 558.5 71.2462 559.077 70 557C66.5576 551.263 69.367 550.292 69.0331 543.614C68.8854 540.66 67.1239 537.843 65.9158 535.254C63.6823 530.468 64.0717 523.84 63.9321 518.676C63.7535 512.07 57.9566 507.889 58.9019 500.326C60.4433 487.996 63.8163 466.114 55.5721 455.622C49.5422 447.947 51.2132 442.055 55.7138 433.872C59.1627 427.601 62.7634 421.792 66.4826 415.947C76.7942 399.743 77.3626 374.588 79.9436 356.152C82.0152 341.355 85.5898 325.039 90.7123 310.952C94.855 299.56 89.9699 293.427 84.9737 282.259C80.846 273.032 77.4011 263.829 74.4175 254.132C72.3549 247.429 68.9095 240.568 67.7578 233.658C65.4389 219.744 63.3677 207.851 64.0029 193.558C64.7776 176.127 67.4221 162.389 58.3352 147.011C55.4135 142.067 54.5121 131.887 58.1226 127.245C62.5069 121.608 54.8267 110.845 53.0216 106.203C49.515 97.1865 55.4493 93.8245 60.8148 86.5079C67.2609 77.7178 65.8493 69.5966 60.0355 60.2944C55.6133 53.2189 53.5701 48.9353 53.7301 40.4572C53.8218 35.5965 57.0059 34.1557 59.3979 30.3969C61.3027 27.4037 55.065 23.3682 53.1633 21.7536Z" fill="#F1EAE6" stroke="#F1EAE6" stroke-width="3" stroke-linecap="round"/>
</svg>
