<svg width="511" height="553" viewBox="0 0 511 553" fill="none" xmlns="http://www.w3.org/2000/svg">
<path d="M60.2285 0.553888C58.1352 -0.131647 58.6202 -0.175766 57.3396 0.393393C57.3396 12.4169 35.4572 5.47032 38.8827 16.6034C40.9756 23.4051 40.0062 31.1795 40.0062 38.2701C40.0062 45.9188 39.6478 50.3248 35.9938 57.048C33.7517 61.1734 31.3395 68.6264 31.3395 73.3382C31.3395 82.226 33.7387 90.4565 34.1481 99.2581C34.8846 115.091 35.6728 131.076 35.6728 146.925C35.6728 166.401 35.9178 187.834 31.179 206.79C28.4827 217.575 23.7903 227.717 21.2283 238.567C17.7642 253.239 17.1246 268.02 16.574 283.025C15.7723 304.87 15.3692 327.007 12.1603 348.667C8.65861 372.304 1.39164 394.937 0.203496 418.964C-0.876582 440.805 2.42144 461.55 8.22823 482.519C11.9383 495.917 15.3952 510.801 24.1172 522.001C33.6885 534.291 45.6295 539.505 59.9075 544.31C87.6589 553.649 121.36 552.174 150.346 552.174C194.564 552.174 238.556 553.332 282.754 552.254C308.535 551.626 332.433 550.224 357.705 544.149C381.742 538.371 406.259 532.255 429.928 525.211C446.248 520.354 462.852 513.492 476.873 503.785C489.527 495.025 495.056 482.526 501.589 469.198C510.467 451.087 511.239 433.185 510.175 413.186C508.966 390.456 510.711 367.373 504.799 345.136C493.506 302.664 456.403 278.328 419.897 258.148C395.588 244.71 369.066 235.06 343.662 223.962C322.876 214.882 303.696 202.429 284.119 191.061C246.997 169.506 232.118 141.673 232.118 99.3384C232.118 87.5219 235.549 69.6253 225.859 60.2579C217.671 52.343 190.997 45.4847 184.13 43.085C173.049 39.2121 110.275 17.823 99.2287 14.0354C86.2175 9.57402 73.3003 4.8347 60.2285 0.553888Z" fill="#F1EAE6"/>
</svg>
