<svg width="337" height="316" viewBox="0 0 337 316" fill="none" xmlns="http://www.w3.org/2000/svg">
<path d="M12.2275 48.732C9.72172 52.1032 5.49989 59.3401 2.39536 62.1483C2.97562 64.4359 5.0269 63.4042 5.53315 65.4001L6.98778 71.1347C8.27213 76.1981 10.5511 80.6235 11.8564 85.7693C14.0534 94.4306 18.67 102.819 22.2895 110.943C28.6133 125.136 30.8107 142.257 34.6229 157.286C44.4985 196.219 44.6181 243.804 78.995 270.16C95.9367 283.149 114.26 290.978 134.374 298.26C155.232 305.812 178.41 313.79 200.948 314.012C215.169 314.152 230.986 308.979 244.294 304.302C256.614 299.973 268.33 294.534 279.248 287.34C312.614 265.355 343.181 229.358 332.341 186.623C327.263 166.601 316.833 147.719 297.676 138.106C272.753 125.598 246.366 125.442 219.661 120.309C199.343 116.403 179.573 101.35 171.768 81.7003C159.372 50.493 145.367 16.1124 110.406 4.68229C84.6841 -3.72715 59.2466 8.19683 37.8436 22.0601C27.1206 29.0057 19.7391 38.6261 12.2275 48.732Z" fill="#F1EAE6" stroke="#F1EAE6" stroke-width="3" stroke-linecap="round"/>
</svg>
