<svg width="254" height="412" viewBox="0 0 254 412" fill="none" xmlns="http://www.w3.org/2000/svg">
<path d="M152.235 10.3863C180.191 5.31667 207.059 2 235.433 2C235.433 7.37815 239.613 6.57542 240.824 10.4529C241.942 14.031 248.783 24.865 244.418 28.357C242.331 30.0267 236.729 32.0685 236.631 34.6135C236.289 43.504 236.631 52.4756 236.631 61.3698C236.631 111.314 233.665 161.325 238.628 211.192C241.452 239.573 249.373 267.247 251.407 295.721C252.458 310.437 252.206 325.24 252.206 339.982C252.206 350.984 252.781 362.317 250.741 373.194C249.274 381.021 246.153 388.325 243.42 395.758C242.271 398.882 241.567 403.27 239.626 406.074C238.993 406.989 235.846 409.073 234.767 409.269C226.547 410.763 221.718 410.831 214.401 406.141C195.533 394.046 179.011 375.028 165.946 357.021C149.96 334.985 137.533 309.227 137.193 281.677C137.052 270.236 137.01 259.047 136.062 247.666C135.342 239.029 131.634 235.02 126.278 228.164C98.0654 192.052 61.0451 162.618 26.5072 132.72L26.3126 132.552C13.3054 121.292 3.09161 112.451 2.08044 94.2495C1.42842 82.5131 4.79466 71.2722 10.2005 60.9704C14.4979 52.7812 18.1397 43.6068 24.8433 37.0095C30.7447 31.2018 38.3362 29.2919 45.8756 26.6265C80.6315 14.339 116.482 16.8701 152.235 10.3863Z" fill="#F1EAE6" stroke="#F1EAE6" stroke-width="3" stroke-linecap="round"/>
</svg>
